<mxfile host="app.diagrams.net" modified="2024-04-04T15:12:10.971Z" agent="Mozilla/5.0 (Windows NT 10.0; Win64; x64) AppleWebKit/537.36 (KHTML, like Gecko) Chrome/121.0.0.0 Safari/537.36" etag="HwrJrZhMSYrnZ3MTCwBk" version="24.2.2" type="device">
  <diagram id="R2lEEEUBdFMjLlhIrx00" name="Page-1">
    <mxGraphModel dx="1004" dy="86" grid="0" gridSize="10" guides="1" tooltips="1" connect="1" arrows="1" fold="1" page="1" pageScale="1" pageWidth="850" pageHeight="1100" math="0" shadow="0" extFonts="Permanent Marker^https://fonts.googleapis.com/css?family=Permanent+Marker">
      <root>
        <mxCell id="0" />
        <mxCell id="1" parent="0" />
        <mxCell id="wa_JmP2eMUhBIoYCG9Al-1" value="users" style="shape=table;startSize=30;container=1;collapsible=1;childLayout=tableLayout;fixedRows=1;rowLines=0;fontStyle=1;align=center;resizeLast=1;html=1;" parent="1" vertex="1">
          <mxGeometry x="-3.8300000000000014" y="116" width="216.16314265324507" height="270" as="geometry" />
        </mxCell>
        <mxCell id="wa_JmP2eMUhBIoYCG9Al-2" value="" style="shape=tableRow;horizontal=0;startSize=0;swimlaneHead=0;swimlaneBody=0;fillColor=none;collapsible=0;dropTarget=0;points=[[0,0.5],[1,0.5]];portConstraint=eastwest;top=0;left=0;right=0;bottom=1;" parent="wa_JmP2eMUhBIoYCG9Al-1" vertex="1">
          <mxGeometry y="30" width="216.16314265324507" height="30" as="geometry" />
        </mxCell>
        <mxCell id="wa_JmP2eMUhBIoYCG9Al-3" value="PK" style="shape=partialRectangle;connectable=0;fillColor=none;top=0;left=0;bottom=0;right=0;fontStyle=1;overflow=hidden;whiteSpace=wrap;html=1;" parent="wa_JmP2eMUhBIoYCG9Al-2" vertex="1">
          <mxGeometry width="30" height="30" as="geometry">
            <mxRectangle width="30" height="30" as="alternateBounds" />
          </mxGeometry>
        </mxCell>
        <mxCell id="wa_JmP2eMUhBIoYCG9Al-4" value="id INT" style="shape=partialRectangle;connectable=0;fillColor=none;top=0;left=0;bottom=0;right=0;align=left;spacingLeft=6;fontStyle=5;overflow=hidden;whiteSpace=wrap;html=1;" parent="wa_JmP2eMUhBIoYCG9Al-2" vertex="1">
          <mxGeometry x="30" width="186.16314265324507" height="30" as="geometry">
            <mxRectangle width="186.16314265324507" height="30" as="alternateBounds" />
          </mxGeometry>
        </mxCell>
        <mxCell id="wa_JmP2eMUhBIoYCG9Al-5" value="" style="shape=tableRow;horizontal=0;startSize=0;swimlaneHead=0;swimlaneBody=0;fillColor=none;collapsible=0;dropTarget=0;points=[[0,0.5],[1,0.5]];portConstraint=eastwest;top=0;left=0;right=0;bottom=0;" parent="wa_JmP2eMUhBIoYCG9Al-1" vertex="1">
          <mxGeometry y="60" width="216.16314265324507" height="30" as="geometry" />
        </mxCell>
        <mxCell id="wa_JmP2eMUhBIoYCG9Al-6" value="" style="shape=partialRectangle;connectable=0;fillColor=none;top=0;left=0;bottom=0;right=0;editable=1;overflow=hidden;whiteSpace=wrap;html=1;" parent="wa_JmP2eMUhBIoYCG9Al-5" vertex="1">
          <mxGeometry width="30" height="30" as="geometry">
            <mxRectangle width="30" height="30" as="alternateBounds" />
          </mxGeometry>
        </mxCell>
        <mxCell id="wa_JmP2eMUhBIoYCG9Al-7" value="full_name VARCHAR(100)" style="shape=partialRectangle;connectable=0;fillColor=none;top=0;left=0;bottom=0;right=0;align=left;spacingLeft=6;overflow=hidden;whiteSpace=wrap;html=1;" parent="wa_JmP2eMUhBIoYCG9Al-5" vertex="1">
          <mxGeometry x="30" width="186.16314265324507" height="30" as="geometry">
            <mxRectangle width="186.16314265324507" height="30" as="alternateBounds" />
          </mxGeometry>
        </mxCell>
        <mxCell id="olAF7BP0_94f7s3-qTLP-30" value="" style="shape=tableRow;horizontal=0;startSize=0;swimlaneHead=0;swimlaneBody=0;fillColor=none;collapsible=0;dropTarget=0;points=[[0,0.5],[1,0.5]];portConstraint=eastwest;top=0;left=0;right=0;bottom=0;" parent="wa_JmP2eMUhBIoYCG9Al-1" vertex="1">
          <mxGeometry y="90" width="216.16314265324507" height="30" as="geometry" />
        </mxCell>
        <mxCell id="olAF7BP0_94f7s3-qTLP-31" value="" style="shape=partialRectangle;connectable=0;fillColor=none;top=0;left=0;bottom=0;right=0;editable=1;overflow=hidden;whiteSpace=wrap;html=1;" parent="olAF7BP0_94f7s3-qTLP-30" vertex="1">
          <mxGeometry width="30" height="30" as="geometry">
            <mxRectangle width="30" height="30" as="alternateBounds" />
          </mxGeometry>
        </mxCell>
        <mxCell id="olAF7BP0_94f7s3-qTLP-32" value="last_name VARCHAR(100)" style="shape=partialRectangle;connectable=0;fillColor=none;top=0;left=0;bottom=0;right=0;align=left;spacingLeft=6;overflow=hidden;whiteSpace=wrap;html=1;" parent="olAF7BP0_94f7s3-qTLP-30" vertex="1">
          <mxGeometry x="30" width="186.16314265324507" height="30" as="geometry">
            <mxRectangle width="186.16314265324507" height="30" as="alternateBounds" />
          </mxGeometry>
        </mxCell>
        <mxCell id="olAF7BP0_94f7s3-qTLP-27" value="" style="shape=tableRow;horizontal=0;startSize=0;swimlaneHead=0;swimlaneBody=0;fillColor=none;collapsible=0;dropTarget=0;points=[[0,0.5],[1,0.5]];portConstraint=eastwest;top=0;left=0;right=0;bottom=0;" parent="wa_JmP2eMUhBIoYCG9Al-1" vertex="1">
          <mxGeometry y="120" width="216.16314265324507" height="30" as="geometry" />
        </mxCell>
        <mxCell id="olAF7BP0_94f7s3-qTLP-28" value="" style="shape=partialRectangle;connectable=0;fillColor=none;top=0;left=0;bottom=0;right=0;editable=1;overflow=hidden;whiteSpace=wrap;html=1;" parent="olAF7BP0_94f7s3-qTLP-27" vertex="1">
          <mxGeometry width="30" height="30" as="geometry">
            <mxRectangle width="30" height="30" as="alternateBounds" />
          </mxGeometry>
        </mxCell>
        <mxCell id="olAF7BP0_94f7s3-qTLP-29" value="first_name VARCHAR(100)" style="shape=partialRectangle;connectable=0;fillColor=none;top=0;left=0;bottom=0;right=0;align=left;spacingLeft=6;overflow=hidden;whiteSpace=wrap;html=1;" parent="olAF7BP0_94f7s3-qTLP-27" vertex="1">
          <mxGeometry x="30" width="186.16314265324507" height="30" as="geometry">
            <mxRectangle width="186.16314265324507" height="30" as="alternateBounds" />
          </mxGeometry>
        </mxCell>
        <mxCell id="wa_JmP2eMUhBIoYCG9Al-8" value="" style="shape=tableRow;horizontal=0;startSize=0;swimlaneHead=0;swimlaneBody=0;fillColor=none;collapsible=0;dropTarget=0;points=[[0,0.5],[1,0.5]];portConstraint=eastwest;top=0;left=0;right=0;bottom=0;" parent="wa_JmP2eMUhBIoYCG9Al-1" vertex="1">
          <mxGeometry y="150" width="216.16314265324507" height="30" as="geometry" />
        </mxCell>
        <mxCell id="wa_JmP2eMUhBIoYCG9Al-9" value="" style="shape=partialRectangle;connectable=0;fillColor=none;top=0;left=0;bottom=0;right=0;editable=1;overflow=hidden;whiteSpace=wrap;html=1;" parent="wa_JmP2eMUhBIoYCG9Al-8" vertex="1">
          <mxGeometry width="30" height="30" as="geometry">
            <mxRectangle width="30" height="30" as="alternateBounds" />
          </mxGeometry>
        </mxCell>
        <mxCell id="wa_JmP2eMUhBIoYCG9Al-10" value="is_active TINYINT(1)" style="shape=partialRectangle;connectable=0;fillColor=none;top=0;left=0;bottom=0;right=0;align=left;spacingLeft=6;overflow=hidden;whiteSpace=wrap;html=1;" parent="wa_JmP2eMUhBIoYCG9Al-8" vertex="1">
          <mxGeometry x="30" width="186.16314265324507" height="30" as="geometry">
            <mxRectangle width="186.16314265324507" height="30" as="alternateBounds" />
          </mxGeometry>
        </mxCell>
        <mxCell id="olAF7BP0_94f7s3-qTLP-24" value="" style="shape=tableRow;horizontal=0;startSize=0;swimlaneHead=0;swimlaneBody=0;fillColor=none;collapsible=0;dropTarget=0;points=[[0,0.5],[1,0.5]];portConstraint=eastwest;top=0;left=0;right=0;bottom=0;" parent="wa_JmP2eMUhBIoYCG9Al-1" vertex="1">
          <mxGeometry y="180" width="216.16314265324507" height="30" as="geometry" />
        </mxCell>
        <mxCell id="olAF7BP0_94f7s3-qTLP-25" value="" style="shape=partialRectangle;connectable=0;fillColor=none;top=0;left=0;bottom=0;right=0;editable=1;overflow=hidden;whiteSpace=wrap;html=1;" parent="olAF7BP0_94f7s3-qTLP-24" vertex="1">
          <mxGeometry width="30" height="30" as="geometry">
            <mxRectangle width="30" height="30" as="alternateBounds" />
          </mxGeometry>
        </mxCell>
        <mxCell id="olAF7BP0_94f7s3-qTLP-26" value="tenant_id INT" style="shape=partialRectangle;connectable=0;fillColor=none;top=0;left=0;bottom=0;right=0;align=left;spacingLeft=6;overflow=hidden;whiteSpace=wrap;html=1;" parent="olAF7BP0_94f7s3-qTLP-24" vertex="1">
          <mxGeometry x="30" width="186.16314265324507" height="30" as="geometry">
            <mxRectangle width="186.16314265324507" height="30" as="alternateBounds" />
          </mxGeometry>
        </mxCell>
        <mxCell id="wa_JmP2eMUhBIoYCG9Al-11" value="" style="shape=tableRow;horizontal=0;startSize=0;swimlaneHead=0;swimlaneBody=0;fillColor=none;collapsible=0;dropTarget=0;points=[[0,0.5],[1,0.5]];portConstraint=eastwest;top=0;left=0;right=0;bottom=0;" parent="wa_JmP2eMUhBIoYCG9Al-1" vertex="1">
          <mxGeometry y="210" width="216.16314265324507" height="30" as="geometry" />
        </mxCell>
        <mxCell id="wa_JmP2eMUhBIoYCG9Al-12" value="" style="shape=partialRectangle;connectable=0;fillColor=none;top=0;left=0;bottom=0;right=0;editable=1;overflow=hidden;whiteSpace=wrap;html=1;" parent="wa_JmP2eMUhBIoYCG9Al-11" vertex="1">
          <mxGeometry width="30" height="30" as="geometry">
            <mxRectangle width="30" height="30" as="alternateBounds" />
          </mxGeometry>
        </mxCell>
        <mxCell id="wa_JmP2eMUhBIoYCG9Al-13" value="created_at DATETIME" style="shape=partialRectangle;connectable=0;fillColor=none;top=0;left=0;bottom=0;right=0;align=left;spacingLeft=6;overflow=hidden;whiteSpace=wrap;html=1;" parent="wa_JmP2eMUhBIoYCG9Al-11" vertex="1">
          <mxGeometry x="30" width="186.16314265324507" height="30" as="geometry">
            <mxRectangle width="186.16314265324507" height="30" as="alternateBounds" />
          </mxGeometry>
        </mxCell>
        <mxCell id="wa_JmP2eMUhBIoYCG9Al-77" value="" style="shape=tableRow;horizontal=0;startSize=0;swimlaneHead=0;swimlaneBody=0;fillColor=none;collapsible=0;dropTarget=0;points=[[0,0.5],[1,0.5]];portConstraint=eastwest;top=0;left=0;right=0;bottom=0;" parent="wa_JmP2eMUhBIoYCG9Al-1" vertex="1">
          <mxGeometry y="240" width="216.16314265324507" height="30" as="geometry" />
        </mxCell>
        <mxCell id="wa_JmP2eMUhBIoYCG9Al-78" value="" style="shape=partialRectangle;connectable=0;fillColor=none;top=0;left=0;bottom=0;right=0;editable=1;overflow=hidden;whiteSpace=wrap;html=1;" parent="wa_JmP2eMUhBIoYCG9Al-77" vertex="1">
          <mxGeometry width="30" height="30" as="geometry">
            <mxRectangle width="30" height="30" as="alternateBounds" />
          </mxGeometry>
        </mxCell>
        <mxCell id="wa_JmP2eMUhBIoYCG9Al-79" value="updated_at DATETIME" style="shape=partialRectangle;connectable=0;fillColor=none;top=0;left=0;bottom=0;right=0;align=left;spacingLeft=6;overflow=hidden;whiteSpace=wrap;html=1;" parent="wa_JmP2eMUhBIoYCG9Al-77" vertex="1">
          <mxGeometry x="30" width="186.16314265324507" height="30" as="geometry">
            <mxRectangle width="186.16314265324507" height="30" as="alternateBounds" />
          </mxGeometry>
        </mxCell>
        <mxCell id="wa_JmP2eMUhBIoYCG9Al-14" value="user_logins" style="shape=table;startSize=30;container=1;collapsible=1;childLayout=tableLayout;fixedRows=1;rowLines=0;fontStyle=1;align=center;resizeLast=1;html=1;" parent="1" vertex="1">
          <mxGeometry x="288.77" y="116" width="251.75" height="270" as="geometry" />
        </mxCell>
        <mxCell id="wa_JmP2eMUhBIoYCG9Al-15" value="" style="shape=tableRow;horizontal=0;startSize=0;swimlaneHead=0;swimlaneBody=0;fillColor=none;collapsible=0;dropTarget=0;points=[[0,0.5],[1,0.5]];portConstraint=eastwest;top=0;left=0;right=0;bottom=1;" parent="wa_JmP2eMUhBIoYCG9Al-14" vertex="1">
          <mxGeometry y="30" width="251.75" height="30" as="geometry" />
        </mxCell>
        <mxCell id="wa_JmP2eMUhBIoYCG9Al-16" value="PK" style="shape=partialRectangle;connectable=0;fillColor=none;top=0;left=0;bottom=0;right=0;fontStyle=1;overflow=hidden;whiteSpace=wrap;html=1;" parent="wa_JmP2eMUhBIoYCG9Al-15" vertex="1">
          <mxGeometry width="30" height="30" as="geometry">
            <mxRectangle width="30" height="30" as="alternateBounds" />
          </mxGeometry>
        </mxCell>
        <mxCell id="wa_JmP2eMUhBIoYCG9Al-17" value="id INT" style="shape=partialRectangle;connectable=0;fillColor=none;top=0;left=0;bottom=0;right=0;align=left;spacingLeft=6;fontStyle=5;overflow=hidden;whiteSpace=wrap;html=1;" parent="wa_JmP2eMUhBIoYCG9Al-15" vertex="1">
          <mxGeometry x="30" width="221.75" height="30" as="geometry">
            <mxRectangle width="221.75" height="30" as="alternateBounds" />
          </mxGeometry>
        </mxCell>
        <mxCell id="wa_JmP2eMUhBIoYCG9Al-18" value="" style="shape=tableRow;horizontal=0;startSize=0;swimlaneHead=0;swimlaneBody=0;fillColor=none;collapsible=0;dropTarget=0;points=[[0,0.5],[1,0.5]];portConstraint=eastwest;top=0;left=0;right=0;bottom=0;" parent="wa_JmP2eMUhBIoYCG9Al-14" vertex="1">
          <mxGeometry y="60" width="251.75" height="30" as="geometry" />
        </mxCell>
        <mxCell id="wa_JmP2eMUhBIoYCG9Al-19" value="" style="shape=partialRectangle;connectable=0;fillColor=none;top=0;left=0;bottom=0;right=0;editable=1;overflow=hidden;whiteSpace=wrap;html=1;" parent="wa_JmP2eMUhBIoYCG9Al-18" vertex="1">
          <mxGeometry width="30" height="30" as="geometry">
            <mxRectangle width="30" height="30" as="alternateBounds" />
          </mxGeometry>
        </mxCell>
        <mxCell id="wa_JmP2eMUhBIoYCG9Al-20" value="user_name VARCHAR(100)" style="shape=partialRectangle;connectable=0;fillColor=none;top=0;left=0;bottom=0;right=0;align=left;spacingLeft=6;overflow=hidden;whiteSpace=wrap;html=1;" parent="wa_JmP2eMUhBIoYCG9Al-18" vertex="1">
          <mxGeometry x="30" width="221.75" height="30" as="geometry">
            <mxRectangle width="221.75" height="30" as="alternateBounds" />
          </mxGeometry>
        </mxCell>
        <mxCell id="wa_JmP2eMUhBIoYCG9Al-21" value="" style="shape=tableRow;horizontal=0;startSize=0;swimlaneHead=0;swimlaneBody=0;fillColor=none;collapsible=0;dropTarget=0;points=[[0,0.5],[1,0.5]];portConstraint=eastwest;top=0;left=0;right=0;bottom=0;" parent="wa_JmP2eMUhBIoYCG9Al-14" vertex="1">
          <mxGeometry y="90" width="251.75" height="30" as="geometry" />
        </mxCell>
        <mxCell id="wa_JmP2eMUhBIoYCG9Al-22" value="" style="shape=partialRectangle;connectable=0;fillColor=none;top=0;left=0;bottom=0;right=0;editable=1;overflow=hidden;whiteSpace=wrap;html=1;" parent="wa_JmP2eMUhBIoYCG9Al-21" vertex="1">
          <mxGeometry width="30" height="30" as="geometry">
            <mxRectangle width="30" height="30" as="alternateBounds" />
          </mxGeometry>
        </mxCell>
        <mxCell id="wa_JmP2eMUhBIoYCG9Al-23" value="password VARCHAR(100)" style="shape=partialRectangle;connectable=0;fillColor=none;top=0;left=0;bottom=0;right=0;align=left;spacingLeft=6;overflow=hidden;whiteSpace=wrap;html=1;" parent="wa_JmP2eMUhBIoYCG9Al-21" vertex="1">
          <mxGeometry x="30" width="221.75" height="30" as="geometry">
            <mxRectangle width="221.75" height="30" as="alternateBounds" />
          </mxGeometry>
        </mxCell>
        <mxCell id="wa_JmP2eMUhBIoYCG9Al-24" value="" style="shape=tableRow;horizontal=0;startSize=0;swimlaneHead=0;swimlaneBody=0;fillColor=none;collapsible=0;dropTarget=0;points=[[0,0.5],[1,0.5]];portConstraint=eastwest;top=0;left=0;right=0;bottom=0;" parent="wa_JmP2eMUhBIoYCG9Al-14" vertex="1">
          <mxGeometry y="120" width="251.75" height="30" as="geometry" />
        </mxCell>
        <mxCell id="wa_JmP2eMUhBIoYCG9Al-25" value="" style="shape=partialRectangle;connectable=0;fillColor=none;top=0;left=0;bottom=0;right=0;editable=1;overflow=hidden;whiteSpace=wrap;html=1;" parent="wa_JmP2eMUhBIoYCG9Al-24" vertex="1">
          <mxGeometry width="30" height="30" as="geometry">
            <mxRectangle width="30" height="30" as="alternateBounds" />
          </mxGeometry>
        </mxCell>
        <mxCell id="wa_JmP2eMUhBIoYCG9Al-26" value="login_type ENUM(phoneNumber, email)" style="shape=partialRectangle;connectable=0;fillColor=none;top=0;left=0;bottom=0;right=0;align=left;spacingLeft=6;overflow=hidden;whiteSpace=wrap;html=1;" parent="wa_JmP2eMUhBIoYCG9Al-24" vertex="1">
          <mxGeometry x="30" width="221.75" height="30" as="geometry">
            <mxRectangle width="221.75" height="30" as="alternateBounds" />
          </mxGeometry>
        </mxCell>
        <mxCell id="wa_JmP2eMUhBIoYCG9Al-85" value="" style="shape=tableRow;horizontal=0;startSize=0;swimlaneHead=0;swimlaneBody=0;fillColor=none;collapsible=0;dropTarget=0;points=[[0,0.5],[1,0.5]];portConstraint=eastwest;top=0;left=0;right=0;bottom=0;" parent="wa_JmP2eMUhBIoYCG9Al-14" vertex="1">
          <mxGeometry y="150" width="251.75" height="30" as="geometry" />
        </mxCell>
        <mxCell id="wa_JmP2eMUhBIoYCG9Al-86" value="" style="shape=partialRectangle;connectable=0;fillColor=none;top=0;left=0;bottom=0;right=0;editable=1;overflow=hidden;whiteSpace=wrap;html=1;" parent="wa_JmP2eMUhBIoYCG9Al-85" vertex="1">
          <mxGeometry width="30" height="30" as="geometry">
            <mxRectangle width="30" height="30" as="alternateBounds" />
          </mxGeometry>
        </mxCell>
        <mxCell id="wa_JmP2eMUhBIoYCG9Al-87" value="user_id INT" style="shape=partialRectangle;connectable=0;fillColor=none;top=0;left=0;bottom=0;right=0;align=left;spacingLeft=6;overflow=hidden;whiteSpace=wrap;html=1;" parent="wa_JmP2eMUhBIoYCG9Al-85" vertex="1">
          <mxGeometry x="30" width="221.75" height="30" as="geometry">
            <mxRectangle width="221.75" height="30" as="alternateBounds" />
          </mxGeometry>
        </mxCell>
        <mxCell id="tb_KeC3MCiqhP8fnsi2d-1" value="" style="shape=tableRow;horizontal=0;startSize=0;swimlaneHead=0;swimlaneBody=0;fillColor=none;collapsible=0;dropTarget=0;points=[[0,0.5],[1,0.5]];portConstraint=eastwest;top=0;left=0;right=0;bottom=0;" parent="wa_JmP2eMUhBIoYCG9Al-14" vertex="1">
          <mxGeometry y="180" width="251.75" height="30" as="geometry" />
        </mxCell>
        <mxCell id="tb_KeC3MCiqhP8fnsi2d-2" value="" style="shape=partialRectangle;connectable=0;fillColor=none;top=0;left=0;bottom=0;right=0;editable=1;overflow=hidden;whiteSpace=wrap;html=1;" parent="tb_KeC3MCiqhP8fnsi2d-1" vertex="1">
          <mxGeometry width="30" height="30" as="geometry">
            <mxRectangle width="30" height="30" as="alternateBounds" />
          </mxGeometry>
        </mxCell>
        <mxCell id="tb_KeC3MCiqhP8fnsi2d-3" value="role_id INT" style="shape=partialRectangle;connectable=0;fillColor=none;top=0;left=0;bottom=0;right=0;align=left;spacingLeft=6;overflow=hidden;whiteSpace=wrap;html=1;" parent="tb_KeC3MCiqhP8fnsi2d-1" vertex="1">
          <mxGeometry x="30" width="221.75" height="30" as="geometry">
            <mxRectangle width="221.75" height="30" as="alternateBounds" />
          </mxGeometry>
        </mxCell>
        <mxCell id="tb_KeC3MCiqhP8fnsi2d-4" value="" style="shape=tableRow;horizontal=0;startSize=0;swimlaneHead=0;swimlaneBody=0;fillColor=none;collapsible=0;dropTarget=0;points=[[0,0.5],[1,0.5]];portConstraint=eastwest;top=0;left=0;right=0;bottom=0;" parent="wa_JmP2eMUhBIoYCG9Al-14" vertex="1">
          <mxGeometry y="210" width="251.75" height="30" as="geometry" />
        </mxCell>
        <mxCell id="tb_KeC3MCiqhP8fnsi2d-5" value="" style="shape=partialRectangle;connectable=0;fillColor=none;top=0;left=0;bottom=0;right=0;editable=1;overflow=hidden;whiteSpace=wrap;html=1;" parent="tb_KeC3MCiqhP8fnsi2d-4" vertex="1">
          <mxGeometry width="30" height="30" as="geometry">
            <mxRectangle width="30" height="30" as="alternateBounds" />
          </mxGeometry>
        </mxCell>
        <mxCell id="tb_KeC3MCiqhP8fnsi2d-6" value="created_at DATETIME" style="shape=partialRectangle;connectable=0;fillColor=none;top=0;left=0;bottom=0;right=0;align=left;spacingLeft=6;overflow=hidden;whiteSpace=wrap;html=1;" parent="tb_KeC3MCiqhP8fnsi2d-4" vertex="1">
          <mxGeometry x="30" width="221.75" height="30" as="geometry">
            <mxRectangle width="221.75" height="30" as="alternateBounds" />
          </mxGeometry>
        </mxCell>
        <mxCell id="tb_KeC3MCiqhP8fnsi2d-7" value="" style="shape=tableRow;horizontal=0;startSize=0;swimlaneHead=0;swimlaneBody=0;fillColor=none;collapsible=0;dropTarget=0;points=[[0,0.5],[1,0.5]];portConstraint=eastwest;top=0;left=0;right=0;bottom=0;" parent="wa_JmP2eMUhBIoYCG9Al-14" vertex="1">
          <mxGeometry y="240" width="251.75" height="30" as="geometry" />
        </mxCell>
        <mxCell id="tb_KeC3MCiqhP8fnsi2d-8" value="" style="shape=partialRectangle;connectable=0;fillColor=none;top=0;left=0;bottom=0;right=0;editable=1;overflow=hidden;whiteSpace=wrap;html=1;" parent="tb_KeC3MCiqhP8fnsi2d-7" vertex="1">
          <mxGeometry width="30" height="30" as="geometry">
            <mxRectangle width="30" height="30" as="alternateBounds" />
          </mxGeometry>
        </mxCell>
        <mxCell id="tb_KeC3MCiqhP8fnsi2d-9" value="updated_at DATETIME" style="shape=partialRectangle;connectable=0;fillColor=none;top=0;left=0;bottom=0;right=0;align=left;spacingLeft=6;overflow=hidden;whiteSpace=wrap;html=1;" parent="tb_KeC3MCiqhP8fnsi2d-7" vertex="1">
          <mxGeometry x="30" width="221.75" height="30" as="geometry">
            <mxRectangle width="221.75" height="30" as="alternateBounds" />
          </mxGeometry>
        </mxCell>
        <mxCell id="wa_JmP2eMUhBIoYCG9Al-27" value="roles" style="shape=table;startSize=30;container=1;collapsible=1;childLayout=tableLayout;fixedRows=1;rowLines=0;fontStyle=1;align=center;resizeLast=1;html=1;" parent="1" vertex="1">
          <mxGeometry x="360.52" y="411" width="180" height="90" as="geometry" />
        </mxCell>
        <mxCell id="wa_JmP2eMUhBIoYCG9Al-28" value="" style="shape=tableRow;horizontal=0;startSize=0;swimlaneHead=0;swimlaneBody=0;fillColor=none;collapsible=0;dropTarget=0;points=[[0,0.5],[1,0.5]];portConstraint=eastwest;top=0;left=0;right=0;bottom=1;" parent="wa_JmP2eMUhBIoYCG9Al-27" vertex="1">
          <mxGeometry y="30" width="180" height="30" as="geometry" />
        </mxCell>
        <mxCell id="wa_JmP2eMUhBIoYCG9Al-29" value="PK" style="shape=partialRectangle;connectable=0;fillColor=none;top=0;left=0;bottom=0;right=0;fontStyle=1;overflow=hidden;whiteSpace=wrap;html=1;" parent="wa_JmP2eMUhBIoYCG9Al-28" vertex="1">
          <mxGeometry width="30" height="30" as="geometry">
            <mxRectangle width="30" height="30" as="alternateBounds" />
          </mxGeometry>
        </mxCell>
        <mxCell id="wa_JmP2eMUhBIoYCG9Al-30" value="id INT" style="shape=partialRectangle;connectable=0;fillColor=none;top=0;left=0;bottom=0;right=0;align=left;spacingLeft=6;fontStyle=5;overflow=hidden;whiteSpace=wrap;html=1;" parent="wa_JmP2eMUhBIoYCG9Al-28" vertex="1">
          <mxGeometry x="30" width="150" height="30" as="geometry">
            <mxRectangle width="150" height="30" as="alternateBounds" />
          </mxGeometry>
        </mxCell>
        <mxCell id="wa_JmP2eMUhBIoYCG9Al-31" value="" style="shape=tableRow;horizontal=0;startSize=0;swimlaneHead=0;swimlaneBody=0;fillColor=none;collapsible=0;dropTarget=0;points=[[0,0.5],[1,0.5]];portConstraint=eastwest;top=0;left=0;right=0;bottom=0;" parent="wa_JmP2eMUhBIoYCG9Al-27" vertex="1">
          <mxGeometry y="60" width="180" height="30" as="geometry" />
        </mxCell>
        <mxCell id="wa_JmP2eMUhBIoYCG9Al-32" value="" style="shape=partialRectangle;connectable=0;fillColor=none;top=0;left=0;bottom=0;right=0;editable=1;overflow=hidden;whiteSpace=wrap;html=1;" parent="wa_JmP2eMUhBIoYCG9Al-31" vertex="1">
          <mxGeometry width="30" height="30" as="geometry">
            <mxRectangle width="30" height="30" as="alternateBounds" />
          </mxGeometry>
        </mxCell>
        <mxCell id="wa_JmP2eMUhBIoYCG9Al-33" value="name ENUM(admin, user)" style="shape=partialRectangle;connectable=0;fillColor=none;top=0;left=0;bottom=0;right=0;align=left;spacingLeft=6;overflow=hidden;whiteSpace=wrap;html=1;" parent="wa_JmP2eMUhBIoYCG9Al-31" vertex="1">
          <mxGeometry x="30" width="150" height="30" as="geometry">
            <mxRectangle width="150" height="30" as="alternateBounds" />
          </mxGeometry>
        </mxCell>
        <mxCell id="wa_JmP2eMUhBIoYCG9Al-40" value="" style="edgeStyle=entityRelationEdgeStyle;fontSize=12;html=1;endArrow=ERmany;rounded=0;" parent="1" source="wa_JmP2eMUhBIoYCG9Al-2" target="wa_JmP2eMUhBIoYCG9Al-15" edge="1">
          <mxGeometry width="100" height="100" relative="1" as="geometry">
            <mxPoint x="354.77" y="410" as="sourcePoint" />
            <mxPoint x="454.77" y="310" as="targetPoint" />
          </mxGeometry>
        </mxCell>
        <mxCell id="wa_JmP2eMUhBIoYCG9Al-42" value="tokens" style="shape=table;startSize=30;container=1;collapsible=1;childLayout=tableLayout;fixedRows=1;rowLines=0;fontStyle=1;align=center;resizeLast=1;html=1;" parent="1" vertex="1">
          <mxGeometry x="600.77" y="86" width="231.75" height="330" as="geometry" />
        </mxCell>
        <mxCell id="wa_JmP2eMUhBIoYCG9Al-43" value="" style="shape=tableRow;horizontal=0;startSize=0;swimlaneHead=0;swimlaneBody=0;fillColor=none;collapsible=0;dropTarget=0;points=[[0,0.5],[1,0.5]];portConstraint=eastwest;top=0;left=0;right=0;bottom=1;" parent="wa_JmP2eMUhBIoYCG9Al-42" vertex="1">
          <mxGeometry y="30" width="231.75" height="30" as="geometry" />
        </mxCell>
        <mxCell id="wa_JmP2eMUhBIoYCG9Al-44" value="PK" style="shape=partialRectangle;connectable=0;fillColor=none;top=0;left=0;bottom=0;right=0;fontStyle=1;overflow=hidden;whiteSpace=wrap;html=1;" parent="wa_JmP2eMUhBIoYCG9Al-43" vertex="1">
          <mxGeometry width="30" height="30" as="geometry">
            <mxRectangle width="30" height="30" as="alternateBounds" />
          </mxGeometry>
        </mxCell>
        <mxCell id="wa_JmP2eMUhBIoYCG9Al-45" value="id INT" style="shape=partialRectangle;connectable=0;fillColor=none;top=0;left=0;bottom=0;right=0;align=left;spacingLeft=6;fontStyle=5;overflow=hidden;whiteSpace=wrap;html=1;" parent="wa_JmP2eMUhBIoYCG9Al-43" vertex="1">
          <mxGeometry x="30" width="201.75" height="30" as="geometry">
            <mxRectangle width="201.75" height="30" as="alternateBounds" />
          </mxGeometry>
        </mxCell>
        <mxCell id="wa_JmP2eMUhBIoYCG9Al-46" value="" style="shape=tableRow;horizontal=0;startSize=0;swimlaneHead=0;swimlaneBody=0;fillColor=none;collapsible=0;dropTarget=0;points=[[0,0.5],[1,0.5]];portConstraint=eastwest;top=0;left=0;right=0;bottom=0;" parent="wa_JmP2eMUhBIoYCG9Al-42" vertex="1">
          <mxGeometry y="60" width="231.75" height="30" as="geometry" />
        </mxCell>
        <mxCell id="wa_JmP2eMUhBIoYCG9Al-47" value="" style="shape=partialRectangle;connectable=0;fillColor=none;top=0;left=0;bottom=0;right=0;editable=1;overflow=hidden;whiteSpace=wrap;html=1;" parent="wa_JmP2eMUhBIoYCG9Al-46" vertex="1">
          <mxGeometry width="30" height="30" as="geometry">
            <mxRectangle width="30" height="30" as="alternateBounds" />
          </mxGeometry>
        </mxCell>
        <mxCell id="wa_JmP2eMUhBIoYCG9Al-48" value="token LONGTEXT" style="shape=partialRectangle;connectable=0;fillColor=none;top=0;left=0;bottom=0;right=0;align=left;spacingLeft=6;overflow=hidden;whiteSpace=wrap;html=1;" parent="wa_JmP2eMUhBIoYCG9Al-46" vertex="1">
          <mxGeometry x="30" width="201.75" height="30" as="geometry">
            <mxRectangle width="201.75" height="30" as="alternateBounds" />
          </mxGeometry>
        </mxCell>
        <mxCell id="wa_JmP2eMUhBIoYCG9Al-49" value="" style="shape=tableRow;horizontal=0;startSize=0;swimlaneHead=0;swimlaneBody=0;fillColor=none;collapsible=0;dropTarget=0;points=[[0,0.5],[1,0.5]];portConstraint=eastwest;top=0;left=0;right=0;bottom=0;" parent="wa_JmP2eMUhBIoYCG9Al-42" vertex="1">
          <mxGeometry y="90" width="231.75" height="30" as="geometry" />
        </mxCell>
        <mxCell id="wa_JmP2eMUhBIoYCG9Al-50" value="" style="shape=partialRectangle;connectable=0;fillColor=none;top=0;left=0;bottom=0;right=0;editable=1;overflow=hidden;whiteSpace=wrap;html=1;" parent="wa_JmP2eMUhBIoYCG9Al-49" vertex="1">
          <mxGeometry width="30" height="30" as="geometry">
            <mxRectangle width="30" height="30" as="alternateBounds" />
          </mxGeometry>
        </mxCell>
        <mxCell id="wa_JmP2eMUhBIoYCG9Al-51" value="token_type VARCHAR(50)" style="shape=partialRectangle;connectable=0;fillColor=none;top=0;left=0;bottom=0;right=0;align=left;spacingLeft=6;overflow=hidden;whiteSpace=wrap;html=1;" parent="wa_JmP2eMUhBIoYCG9Al-49" vertex="1">
          <mxGeometry x="30" width="201.75" height="30" as="geometry">
            <mxRectangle width="201.75" height="30" as="alternateBounds" />
          </mxGeometry>
        </mxCell>
        <mxCell id="wa_JmP2eMUhBIoYCG9Al-52" value="" style="shape=tableRow;horizontal=0;startSize=0;swimlaneHead=0;swimlaneBody=0;fillColor=none;collapsible=0;dropTarget=0;points=[[0,0.5],[1,0.5]];portConstraint=eastwest;top=0;left=0;right=0;bottom=0;" parent="wa_JmP2eMUhBIoYCG9Al-42" vertex="1">
          <mxGeometry y="120" width="231.75" height="30" as="geometry" />
        </mxCell>
        <mxCell id="wa_JmP2eMUhBIoYCG9Al-53" value="" style="shape=partialRectangle;connectable=0;fillColor=none;top=0;left=0;bottom=0;right=0;editable=1;overflow=hidden;whiteSpace=wrap;html=1;" parent="wa_JmP2eMUhBIoYCG9Al-52" vertex="1">
          <mxGeometry width="30" height="30" as="geometry">
            <mxRectangle width="30" height="30" as="alternateBounds" />
          </mxGeometry>
        </mxCell>
        <mxCell id="wa_JmP2eMUhBIoYCG9Al-54" value="expiration_date DATETIME" style="shape=partialRectangle;connectable=0;fillColor=none;top=0;left=0;bottom=0;right=0;align=left;spacingLeft=6;overflow=hidden;whiteSpace=wrap;html=1;" parent="wa_JmP2eMUhBIoYCG9Al-52" vertex="1">
          <mxGeometry x="30" width="201.75" height="30" as="geometry">
            <mxRectangle width="201.75" height="30" as="alternateBounds" />
          </mxGeometry>
        </mxCell>
        <mxCell id="wa_JmP2eMUhBIoYCG9Al-59" value="" style="shape=tableRow;horizontal=0;startSize=0;swimlaneHead=0;swimlaneBody=0;fillColor=none;collapsible=0;dropTarget=0;points=[[0,0.5],[1,0.5]];portConstraint=eastwest;top=0;left=0;right=0;bottom=0;" parent="wa_JmP2eMUhBIoYCG9Al-42" vertex="1">
          <mxGeometry y="150" width="231.75" height="30" as="geometry" />
        </mxCell>
        <mxCell id="wa_JmP2eMUhBIoYCG9Al-60" value="" style="shape=partialRectangle;connectable=0;fillColor=none;top=0;left=0;bottom=0;right=0;editable=1;overflow=hidden;whiteSpace=wrap;html=1;" parent="wa_JmP2eMUhBIoYCG9Al-59" vertex="1">
          <mxGeometry width="30" height="30" as="geometry">
            <mxRectangle width="30" height="30" as="alternateBounds" />
          </mxGeometry>
        </mxCell>
        <mxCell id="wa_JmP2eMUhBIoYCG9Al-61" value="is_mobile TINYINT(1)" style="shape=partialRectangle;connectable=0;fillColor=none;top=0;left=0;bottom=0;right=0;align=left;spacingLeft=6;overflow=hidden;whiteSpace=wrap;html=1;" parent="wa_JmP2eMUhBIoYCG9Al-59" vertex="1">
          <mxGeometry x="30" width="201.75" height="30" as="geometry">
            <mxRectangle width="201.75" height="30" as="alternateBounds" />
          </mxGeometry>
        </mxCell>
        <mxCell id="wa_JmP2eMUhBIoYCG9Al-62" value="" style="shape=tableRow;horizontal=0;startSize=0;swimlaneHead=0;swimlaneBody=0;fillColor=none;collapsible=0;dropTarget=0;points=[[0,0.5],[1,0.5]];portConstraint=eastwest;top=0;left=0;right=0;bottom=0;" parent="wa_JmP2eMUhBIoYCG9Al-42" vertex="1">
          <mxGeometry y="180" width="231.75" height="30" as="geometry" />
        </mxCell>
        <mxCell id="wa_JmP2eMUhBIoYCG9Al-63" value="" style="shape=partialRectangle;connectable=0;fillColor=none;top=0;left=0;bottom=0;right=0;editable=1;overflow=hidden;whiteSpace=wrap;html=1;" parent="wa_JmP2eMUhBIoYCG9Al-62" vertex="1">
          <mxGeometry width="30" height="30" as="geometry">
            <mxRectangle width="30" height="30" as="alternateBounds" />
          </mxGeometry>
        </mxCell>
        <mxCell id="wa_JmP2eMUhBIoYCG9Al-64" value="refresh_expiration_date DATETIME" style="shape=partialRectangle;connectable=0;fillColor=none;top=0;left=0;bottom=0;right=0;align=left;spacingLeft=6;overflow=hidden;whiteSpace=wrap;html=1;" parent="wa_JmP2eMUhBIoYCG9Al-62" vertex="1">
          <mxGeometry x="30" width="201.75" height="30" as="geometry">
            <mxRectangle width="201.75" height="30" as="alternateBounds" />
          </mxGeometry>
        </mxCell>
        <mxCell id="wa_JmP2eMUhBIoYCG9Al-65" value="" style="shape=tableRow;horizontal=0;startSize=0;swimlaneHead=0;swimlaneBody=0;fillColor=none;collapsible=0;dropTarget=0;points=[[0,0.5],[1,0.5]];portConstraint=eastwest;top=0;left=0;right=0;bottom=0;" parent="wa_JmP2eMUhBIoYCG9Al-42" vertex="1">
          <mxGeometry y="210" width="231.75" height="30" as="geometry" />
        </mxCell>
        <mxCell id="wa_JmP2eMUhBIoYCG9Al-66" value="" style="shape=partialRectangle;connectable=0;fillColor=none;top=0;left=0;bottom=0;right=0;editable=1;overflow=hidden;whiteSpace=wrap;html=1;" parent="wa_JmP2eMUhBIoYCG9Al-65" vertex="1">
          <mxGeometry width="30" height="30" as="geometry">
            <mxRectangle width="30" height="30" as="alternateBounds" />
          </mxGeometry>
        </mxCell>
        <mxCell id="wa_JmP2eMUhBIoYCG9Al-67" value="refresh_token LONGTEXT" style="shape=partialRectangle;connectable=0;fillColor=none;top=0;left=0;bottom=0;right=0;align=left;spacingLeft=6;overflow=hidden;whiteSpace=wrap;html=1;" parent="wa_JmP2eMUhBIoYCG9Al-65" vertex="1">
          <mxGeometry x="30" width="201.75" height="30" as="geometry">
            <mxRectangle width="201.75" height="30" as="alternateBounds" />
          </mxGeometry>
        </mxCell>
        <mxCell id="wa_JmP2eMUhBIoYCG9Al-68" value="" style="shape=tableRow;horizontal=0;startSize=0;swimlaneHead=0;swimlaneBody=0;fillColor=none;collapsible=0;dropTarget=0;points=[[0,0.5],[1,0.5]];portConstraint=eastwest;top=0;left=0;right=0;bottom=0;" parent="wa_JmP2eMUhBIoYCG9Al-42" vertex="1">
          <mxGeometry y="240" width="231.75" height="30" as="geometry" />
        </mxCell>
        <mxCell id="wa_JmP2eMUhBIoYCG9Al-69" value="" style="shape=partialRectangle;connectable=0;fillColor=none;top=0;left=0;bottom=0;right=0;editable=1;overflow=hidden;whiteSpace=wrap;html=1;" parent="wa_JmP2eMUhBIoYCG9Al-68" vertex="1">
          <mxGeometry width="30" height="30" as="geometry">
            <mxRectangle width="30" height="30" as="alternateBounds" />
          </mxGeometry>
        </mxCell>
        <mxCell id="wa_JmP2eMUhBIoYCG9Al-70" value="expired TINYINT(1)" style="shape=partialRectangle;connectable=0;fillColor=none;top=0;left=0;bottom=0;right=0;align=left;spacingLeft=6;overflow=hidden;whiteSpace=wrap;html=1;" parent="wa_JmP2eMUhBIoYCG9Al-68" vertex="1">
          <mxGeometry x="30" width="201.75" height="30" as="geometry">
            <mxRectangle width="201.75" height="30" as="alternateBounds" />
          </mxGeometry>
        </mxCell>
        <mxCell id="wa_JmP2eMUhBIoYCG9Al-71" value="" style="shape=tableRow;horizontal=0;startSize=0;swimlaneHead=0;swimlaneBody=0;fillColor=none;collapsible=0;dropTarget=0;points=[[0,0.5],[1,0.5]];portConstraint=eastwest;top=0;left=0;right=0;bottom=0;" parent="wa_JmP2eMUhBIoYCG9Al-42" vertex="1">
          <mxGeometry y="270" width="231.75" height="30" as="geometry" />
        </mxCell>
        <mxCell id="wa_JmP2eMUhBIoYCG9Al-72" value="" style="shape=partialRectangle;connectable=0;fillColor=none;top=0;left=0;bottom=0;right=0;editable=1;overflow=hidden;whiteSpace=wrap;html=1;" parent="wa_JmP2eMUhBIoYCG9Al-71" vertex="1">
          <mxGeometry width="30" height="30" as="geometry">
            <mxRectangle width="30" height="30" as="alternateBounds" />
          </mxGeometry>
        </mxCell>
        <mxCell id="wa_JmP2eMUhBIoYCG9Al-73" value="revoked TINYINT(1)" style="shape=partialRectangle;connectable=0;fillColor=none;top=0;left=0;bottom=0;right=0;align=left;spacingLeft=6;overflow=hidden;whiteSpace=wrap;html=1;" parent="wa_JmP2eMUhBIoYCG9Al-71" vertex="1">
          <mxGeometry x="30" width="201.75" height="30" as="geometry">
            <mxRectangle width="201.75" height="30" as="alternateBounds" />
          </mxGeometry>
        </mxCell>
        <mxCell id="wa_JmP2eMUhBIoYCG9Al-56" value="" style="shape=tableRow;horizontal=0;startSize=0;swimlaneHead=0;swimlaneBody=0;fillColor=none;collapsible=0;dropTarget=0;points=[[0,0.5],[1,0.5]];portConstraint=eastwest;top=0;left=0;right=0;bottom=0;" parent="wa_JmP2eMUhBIoYCG9Al-42" vertex="1">
          <mxGeometry y="300" width="231.75" height="30" as="geometry" />
        </mxCell>
        <mxCell id="wa_JmP2eMUhBIoYCG9Al-57" value="" style="shape=partialRectangle;connectable=0;fillColor=none;top=0;left=0;bottom=0;right=0;editable=1;overflow=hidden;whiteSpace=wrap;html=1;" parent="wa_JmP2eMUhBIoYCG9Al-56" vertex="1">
          <mxGeometry width="30" height="30" as="geometry">
            <mxRectangle width="30" height="30" as="alternateBounds" />
          </mxGeometry>
        </mxCell>
        <mxCell id="wa_JmP2eMUhBIoYCG9Al-58" value="user_id INT" style="shape=partialRectangle;connectable=0;fillColor=none;top=0;left=0;bottom=0;right=0;align=left;spacingLeft=6;overflow=hidden;whiteSpace=wrap;html=1;" parent="wa_JmP2eMUhBIoYCG9Al-56" vertex="1">
          <mxGeometry x="30" width="201.75" height="30" as="geometry">
            <mxRectangle width="201.75" height="30" as="alternateBounds" />
          </mxGeometry>
        </mxCell>
        <mxCell id="wa_JmP2eMUhBIoYCG9Al-55" value="" style="edgeStyle=entityRelationEdgeStyle;fontSize=12;html=1;endArrow=ERoneToMany;rounded=0;" parent="1" source="wa_JmP2eMUhBIoYCG9Al-14" target="wa_JmP2eMUhBIoYCG9Al-42" edge="1">
          <mxGeometry width="100" height="100" relative="1" as="geometry">
            <mxPoint x="323.77" y="308" as="sourcePoint" />
            <mxPoint x="423.77" y="208" as="targetPoint" />
          </mxGeometry>
        </mxCell>
        <mxCell id="wa_JmP2eMUhBIoYCG9Al-84" value="" style="edgeStyle=entityRelationEdgeStyle;fontSize=12;html=1;endArrow=ERoneToMany;rounded=0;" parent="1" source="wa_JmP2eMUhBIoYCG9Al-27" target="tb_KeC3MCiqhP8fnsi2d-1" edge="1">
          <mxGeometry width="100" height="100" relative="1" as="geometry">
            <mxPoint x="323.77" y="408" as="sourcePoint" />
            <mxPoint x="423.77" y="308" as="targetPoint" />
          </mxGeometry>
        </mxCell>
        <mxCell id="olAF7BP0_94f7s3-qTLP-1" value="tenants" style="shape=table;startSize=30;container=1;collapsible=1;childLayout=tableLayout;fixedRows=1;rowLines=0;fontStyle=1;align=center;resizeLast=1;html=1;" parent="1" vertex="1">
          <mxGeometry x="-3.8299999999999996" y="411" width="215.57999999999998" height="240" as="geometry" />
        </mxCell>
        <mxCell id="olAF7BP0_94f7s3-qTLP-2" value="" style="shape=tableRow;horizontal=0;startSize=0;swimlaneHead=0;swimlaneBody=0;fillColor=none;collapsible=0;dropTarget=0;points=[[0,0.5],[1,0.5]];portConstraint=eastwest;top=0;left=0;right=0;bottom=1;" parent="olAF7BP0_94f7s3-qTLP-1" vertex="1">
          <mxGeometry y="30" width="215.57999999999998" height="30" as="geometry" />
        </mxCell>
        <mxCell id="olAF7BP0_94f7s3-qTLP-3" value="PK" style="shape=partialRectangle;connectable=0;fillColor=none;top=0;left=0;bottom=0;right=0;fontStyle=1;overflow=hidden;whiteSpace=wrap;html=1;" parent="olAF7BP0_94f7s3-qTLP-2" vertex="1">
          <mxGeometry width="30" height="30" as="geometry">
            <mxRectangle width="30" height="30" as="alternateBounds" />
          </mxGeometry>
        </mxCell>
        <mxCell id="olAF7BP0_94f7s3-qTLP-4" value="id INT" style="shape=partialRectangle;connectable=0;fillColor=none;top=0;left=0;bottom=0;right=0;align=left;spacingLeft=6;fontStyle=5;overflow=hidden;whiteSpace=wrap;html=1;" parent="olAF7BP0_94f7s3-qTLP-2" vertex="1">
          <mxGeometry x="30" width="185.57999999999998" height="30" as="geometry">
            <mxRectangle width="185.57999999999998" height="30" as="alternateBounds" />
          </mxGeometry>
        </mxCell>
        <mxCell id="olAF7BP0_94f7s3-qTLP-5" value="" style="shape=tableRow;horizontal=0;startSize=0;swimlaneHead=0;swimlaneBody=0;fillColor=none;collapsible=0;dropTarget=0;points=[[0,0.5],[1,0.5]];portConstraint=eastwest;top=0;left=0;right=0;bottom=0;" parent="olAF7BP0_94f7s3-qTLP-1" vertex="1">
          <mxGeometry y="60" width="215.57999999999998" height="30" as="geometry" />
        </mxCell>
        <mxCell id="olAF7BP0_94f7s3-qTLP-6" value="" style="shape=partialRectangle;connectable=0;fillColor=none;top=0;left=0;bottom=0;right=0;editable=1;overflow=hidden;whiteSpace=wrap;html=1;" parent="olAF7BP0_94f7s3-qTLP-5" vertex="1">
          <mxGeometry width="30" height="30" as="geometry">
            <mxRectangle width="30" height="30" as="alternateBounds" />
          </mxGeometry>
        </mxCell>
        <mxCell id="olAF7BP0_94f7s3-qTLP-7" value="code VARCHAR(100)" style="shape=partialRectangle;connectable=0;fillColor=none;top=0;left=0;bottom=0;right=0;align=left;spacingLeft=6;overflow=hidden;whiteSpace=wrap;html=1;" parent="olAF7BP0_94f7s3-qTLP-5" vertex="1">
          <mxGeometry x="30" width="185.57999999999998" height="30" as="geometry">
            <mxRectangle width="185.57999999999998" height="30" as="alternateBounds" />
          </mxGeometry>
        </mxCell>
        <mxCell id="olAF7BP0_94f7s3-qTLP-8" value="" style="shape=tableRow;horizontal=0;startSize=0;swimlaneHead=0;swimlaneBody=0;fillColor=none;collapsible=0;dropTarget=0;points=[[0,0.5],[1,0.5]];portConstraint=eastwest;top=0;left=0;right=0;bottom=0;" parent="olAF7BP0_94f7s3-qTLP-1" vertex="1">
          <mxGeometry y="90" width="215.57999999999998" height="30" as="geometry" />
        </mxCell>
        <mxCell id="olAF7BP0_94f7s3-qTLP-9" value="" style="shape=partialRectangle;connectable=0;fillColor=none;top=0;left=0;bottom=0;right=0;editable=1;overflow=hidden;whiteSpace=wrap;html=1;" parent="olAF7BP0_94f7s3-qTLP-8" vertex="1">
          <mxGeometry width="30" height="30" as="geometry">
            <mxRectangle width="30" height="30" as="alternateBounds" />
          </mxGeometry>
        </mxCell>
        <mxCell id="olAF7BP0_94f7s3-qTLP-10" value="name VARCHAR(100)" style="shape=partialRectangle;connectable=0;fillColor=none;top=0;left=0;bottom=0;right=0;align=left;spacingLeft=6;overflow=hidden;whiteSpace=wrap;html=1;" parent="olAF7BP0_94f7s3-qTLP-8" vertex="1">
          <mxGeometry x="30" width="185.57999999999998" height="30" as="geometry">
            <mxRectangle width="185.57999999999998" height="30" as="alternateBounds" />
          </mxGeometry>
        </mxCell>
        <mxCell id="olAF7BP0_94f7s3-qTLP-11" value="" style="shape=tableRow;horizontal=0;startSize=0;swimlaneHead=0;swimlaneBody=0;fillColor=none;collapsible=0;dropTarget=0;points=[[0,0.5],[1,0.5]];portConstraint=eastwest;top=0;left=0;right=0;bottom=0;" parent="olAF7BP0_94f7s3-qTLP-1" vertex="1">
          <mxGeometry y="120" width="215.57999999999998" height="30" as="geometry" />
        </mxCell>
        <mxCell id="olAF7BP0_94f7s3-qTLP-12" value="" style="shape=partialRectangle;connectable=0;fillColor=none;top=0;left=0;bottom=0;right=0;editable=1;overflow=hidden;whiteSpace=wrap;html=1;" parent="olAF7BP0_94f7s3-qTLP-11" vertex="1">
          <mxGeometry width="30" height="30" as="geometry">
            <mxRectangle width="30" height="30" as="alternateBounds" />
          </mxGeometry>
        </mxCell>
        <mxCell id="olAF7BP0_94f7s3-qTLP-13" value="translate_name VARCHAR(100)" style="shape=partialRectangle;connectable=0;fillColor=none;top=0;left=0;bottom=0;right=0;align=left;spacingLeft=6;overflow=hidden;whiteSpace=wrap;html=1;" parent="olAF7BP0_94f7s3-qTLP-11" vertex="1">
          <mxGeometry x="30" width="185.57999999999998" height="30" as="geometry">
            <mxRectangle width="185.57999999999998" height="30" as="alternateBounds" />
          </mxGeometry>
        </mxCell>
        <mxCell id="olAF7BP0_94f7s3-qTLP-15" value="" style="shape=tableRow;horizontal=0;startSize=0;swimlaneHead=0;swimlaneBody=0;fillColor=none;collapsible=0;dropTarget=0;points=[[0,0.5],[1,0.5]];portConstraint=eastwest;top=0;left=0;right=0;bottom=0;" parent="olAF7BP0_94f7s3-qTLP-1" vertex="1">
          <mxGeometry y="150" width="215.57999999999998" height="30" as="geometry" />
        </mxCell>
        <mxCell id="olAF7BP0_94f7s3-qTLP-16" value="" style="shape=partialRectangle;connectable=0;fillColor=none;top=0;left=0;bottom=0;right=0;editable=1;overflow=hidden;whiteSpace=wrap;html=1;" parent="olAF7BP0_94f7s3-qTLP-15" vertex="1">
          <mxGeometry width="30" height="30" as="geometry">
            <mxRectangle width="30" height="30" as="alternateBounds" />
          </mxGeometry>
        </mxCell>
        <mxCell id="olAF7BP0_94f7s3-qTLP-17" value="status VARCHAR(100)" style="shape=partialRectangle;connectable=0;fillColor=none;top=0;left=0;bottom=0;right=0;align=left;spacingLeft=6;overflow=hidden;whiteSpace=wrap;html=1;" parent="olAF7BP0_94f7s3-qTLP-15" vertex="1">
          <mxGeometry x="30" width="185.57999999999998" height="30" as="geometry">
            <mxRectangle width="185.57999999999998" height="30" as="alternateBounds" />
          </mxGeometry>
        </mxCell>
        <mxCell id="olAF7BP0_94f7s3-qTLP-18" value="" style="shape=tableRow;horizontal=0;startSize=0;swimlaneHead=0;swimlaneBody=0;fillColor=none;collapsible=0;dropTarget=0;points=[[0,0.5],[1,0.5]];portConstraint=eastwest;top=0;left=0;right=0;bottom=0;" parent="olAF7BP0_94f7s3-qTLP-1" vertex="1">
          <mxGeometry y="180" width="215.57999999999998" height="30" as="geometry" />
        </mxCell>
        <mxCell id="olAF7BP0_94f7s3-qTLP-19" value="" style="shape=partialRectangle;connectable=0;fillColor=none;top=0;left=0;bottom=0;right=0;editable=1;overflow=hidden;whiteSpace=wrap;html=1;" parent="olAF7BP0_94f7s3-qTLP-18" vertex="1">
          <mxGeometry width="30" height="30" as="geometry">
            <mxRectangle width="30" height="30" as="alternateBounds" />
          </mxGeometry>
        </mxCell>
        <mxCell id="olAF7BP0_94f7s3-qTLP-20" value="created_at DATETIME" style="shape=partialRectangle;connectable=0;fillColor=none;top=0;left=0;bottom=0;right=0;align=left;spacingLeft=6;overflow=hidden;whiteSpace=wrap;html=1;" parent="olAF7BP0_94f7s3-qTLP-18" vertex="1">
          <mxGeometry x="30" width="185.57999999999998" height="30" as="geometry">
            <mxRectangle width="185.57999999999998" height="30" as="alternateBounds" />
          </mxGeometry>
        </mxCell>
        <mxCell id="olAF7BP0_94f7s3-qTLP-21" value="" style="shape=tableRow;horizontal=0;startSize=0;swimlaneHead=0;swimlaneBody=0;fillColor=none;collapsible=0;dropTarget=0;points=[[0,0.5],[1,0.5]];portConstraint=eastwest;top=0;left=0;right=0;bottom=0;" parent="olAF7BP0_94f7s3-qTLP-1" vertex="1">
          <mxGeometry y="210" width="215.57999999999998" height="30" as="geometry" />
        </mxCell>
        <mxCell id="olAF7BP0_94f7s3-qTLP-22" value="" style="shape=partialRectangle;connectable=0;fillColor=none;top=0;left=0;bottom=0;right=0;editable=1;overflow=hidden;whiteSpace=wrap;html=1;" parent="olAF7BP0_94f7s3-qTLP-21" vertex="1">
          <mxGeometry width="30" height="30" as="geometry">
            <mxRectangle width="30" height="30" as="alternateBounds" />
          </mxGeometry>
        </mxCell>
        <mxCell id="olAF7BP0_94f7s3-qTLP-23" value="updated_at DATETIME" style="shape=partialRectangle;connectable=0;fillColor=none;top=0;left=0;bottom=0;right=0;align=left;spacingLeft=6;overflow=hidden;whiteSpace=wrap;html=1;" parent="olAF7BP0_94f7s3-qTLP-21" vertex="1">
          <mxGeometry x="30" width="185.57999999999998" height="30" as="geometry">
            <mxRectangle width="185.57999999999998" height="30" as="alternateBounds" />
          </mxGeometry>
        </mxCell>
        <mxCell id="olAF7BP0_94f7s3-qTLP-14" value="" style="edgeStyle=entityRelationEdgeStyle;fontSize=12;html=1;endArrow=ERmandOne;startArrow=ERmandOne;rounded=0;" parent="1" source="wa_JmP2eMUhBIoYCG9Al-1" target="olAF7BP0_94f7s3-qTLP-1" edge="1">
          <mxGeometry width="100" height="100" relative="1" as="geometry">
            <mxPoint x="384.77" y="639" as="sourcePoint" />
            <mxPoint x="484.77" y="539" as="targetPoint" />
          </mxGeometry>
        </mxCell>
      </root>
    </mxGraphModel>
  </diagram>
</mxfile>
